<?xml version="1.0" encoding="UTF-8" standalone="no"?> <svg xmlns="http://www.w3.org/2000/svg" xmlns:xlink="http://www.w3.org/1999/xlink" viewBox="0 0 64 64"><defs><style>.cls-1{fill:url(#linear-gradient);}.cls-2{fill:#fff;}</style><linearGradient id="linear-gradient" x1="3.4" y1="31.97" x2="60.6" y2="31.97" gradientUnits="userSpaceOnUse"><stop offset="0" stop-color="#5bb4f6"/><stop offset="0.61" stop-color="#2191e5"/><stop offset="1" stop-color="#007edb"/></linearGradient></defs><g id="Layer_41" data-name="Layer 41"><rect class="cls-1" x="3.4" y="3.4" width="57.2" height="57.14" rx="28.57"/><path class="cls-2" d="M52,20.26H48V18.91a.6.6,0,0,0-.6-.6H43.79a.59.59,0,0,0-.59.6v1.35H20.8V18.91a.59.59,0,0,0-.59-.6H16.62a.6.6,0,0,0-.6.6v1.35H12a.6.6,0,0,0-.6.6V32.09a.6.6,0,0,0,.6.6h4V34a.6.6,0,0,0,.6.6h3.59a.59.59,0,0,0,.59-.6V32.69h3.67A1.33,1.33,0,0,1,25.79,34v6.74H24.44a.59.59,0,0,0-.6.6v3.59a.6.6,0,0,0,.6.6h1.35v5.55a.59.59,0,0,0,.59.6H37.62a.59.59,0,0,0,.59-.6V45.54h1.35a.6.6,0,0,0,.6-.6V41.35a.59.59,0,0,0-.6-.6H38.21V34a1.33,1.33,0,0,1,1.32-1.32H43.2V34a.59.59,0,0,0,.59.6h3.59A.6.6,0,0,0,48,34V32.69h4a.6.6,0,0,0,.6-.6V20.86A.6.6,0,0,0,52,20.26ZM12.6,31.49v-10H16v10Zm7,1.95h-2.4V19.51h2.4ZM37,50.49H27v-5H37ZM39,44.34H25V42H39Zm.57-12.85A2.51,2.51,0,0,0,37,34v6.74H27V34a2.51,2.51,0,0,0-2.51-2.52H20.8v-10H43.2v10Zm7.26,1.95h-2.4V19.51h2.4Zm4.61-1.95H48v-10H51.4Z"/></g></svg>